0
SECTION
2
HEADER
9
$INSUNITS
70
1
9
$ACADVER
1
AC1014
9
$HANDSEED
5
FFFF
0
ENDSEC
0
SECTION
2
TABLES
0
TABLE
2
VPORT
5
8
100
AcDbSymbolTable
0
ENDTAB
0
TABLE
2
LTYPE
5
5
100
AcDbSymbolTable
0
LTYPE
5
14
100
AcDbSymbolTableRecord
100
AcDbLinetypeTableRecord
2
BYBLOCK
70
0
0
LTYPE
5
15
100
AcDbSymbolTableRecord
100
AcDbLinetypeTableRecord
2
BYLAYER
70
0
0
LTYPE
5
16
100
AcDbSymbolTableRecord
100
AcDbLinetypeTableRecord
2
DASHED
70
0
3
Dashed __ __ __ __ __ __ __ __ __ __ __ __ __ _
72
65
73
2
40
0.75
49
0.5
74
0
49
-0.25
74
0
0
ENDTAB
0
TABLE
2
LAYER
5
2
100
AcDbSymbolTable
70
2
0
LAYER
5
50
100
AcDbSymbolTableRecord
100
AcDbLayerTableRecord
2
0
70
0
62
7
6
CONTINUOUS
0
ENDTAB
0
TABLE
2
STYLE
5
3
100
AcDbSymbolTable
70
1
0
STYLE
5
11
100
AcDbSymbolTableRecord
100
AcDbTextStyleTableRecord
2
STANDARD
70
0
0
ENDTAB
0
TABLE
2
VIEW
5
6
100
AcDbSymbolTable
70
0
0
ENDTAB
0
TABLE
2
UCS
5
7
100
AcDbSymbolTable
70
0
0
ENDTAB
0
TABLE
2
APPID
5
9
100
AcDbSymbolTable
70
2
0
APPID
5
12
100
AcDbSymbolTableRecord
100
AcDbRegAppTableRecord
2
ACAD
70
0
0
ENDTAB
0
TABLE
2
DIMSTYLE
5
A
100
AcDbSymbolTable
70
1
0
ENDTAB
0
TABLE
2
BLOCK_RECORD
5
1
100
AcDbSymbolTable
70
1
0
BLOCK_RECORD
5
1F
100
AcDbSymbolTableRecord
100
AcDbBlockTableRecord
2
*MODEL_SPACE
0
BLOCK_RECORD
5
1B
100
AcDbSymbolTableRecord
100
AcDbBlockTableRecord
2
*PAPER_SPACE
0
ENDTAB
0
ENDSEC
0
SECTION
2
BLOCKS
0
BLOCK
5
20
100
AcDbEntity
100
AcDbBlockBegin
2
*MODEL_SPACE
0
ENDBLK
5
21
100
AcDbEntity
100
AcDbBlockEnd
0
BLOCK
5
1C
100
AcDbEntity
100
AcDbBlockBegin
2
*PAPER_SPACE
0
ENDBLK
5
1D
100
AcDbEntity
100
AcDbBlockEnd
0
ENDSEC
0
SECTION
2
ENTITIES
0
LWPOLYLINE
5
100
100
AcDbEntity
8
0
100
AcDbPolyline
90
12
70
1
43
0.0
10
-15.710144880478291
20
17.237889445897707
10
-17.264060794787969
20
16.856647618109736
10
-16.001197240240309
20
11.709301151958925
10
-14.44728132593063
20
12.090542979746893
10
-14.634328097689103
20
12.852932975205082
10
-13.364380604745053
20
13.164505241726225
10
-13.56453256433374
20
13.980311096738811
10
-14.834480057277789
20
13.668738830217665
10
-15.322946149131131
20
15.659693595426939
10
-14.052998656187082
20
15.971265861948085
10
-14.253150615775764
20
16.787071716960664
10
-15.523098108719815
20
16.475499450439521
0
CIRCLE
5
101
100
AcDbEntity
8
0
100
AcDbCircle
10
-14.384963730005856
20
16.32422231570898
30
-1.9581886418585435e-14
40
0.070000000000000312
210
-2.2130825696263698e-18
220
1.2420406546163117e-15
230
1
0
CIRCLE
5
102
100
AcDbEntity
8
0
100
AcDbCircle
10
-13.698515789523316
20
13.526306921269015
30
-1.6784474073073231e-14
40
0.069999999999998119
210
-2.2130825696263201e-18
220
1.2420406546163121e-15
230
1
0
CIRCLE
5
103
100
AcDbEntity
8
0
100
AcDbCircle
10
-15.270305029078544
20
14.618987997939298
30
-1.8183180245829335e-14
40
0.088582677165353493
210
-2.3946989551229332e-18
220
1.213431438586279e-15
230
1
0
CIRCLE
5
104
100
AcDbEntity
8
0
100
AcDbCircle
10
-14.384963730005856
20
16.32422231570898
30
-1.9581886418585435e-14
40
0.070000000000000284
210
0
220
1.2490009027033013e-15
230
1
0
CIRCLE
5
105
100
AcDbEntity
8
0
100
AcDbCircle
10
-13.698515789523318
20
13.526306921269015
30
-1.6784474073073231e-14
40
0.069999999999998119
210
0
220
1.2490009027033013e-15
230
1
0
CIRCLE
5
106
100
AcDbEntity
8
0
100
AcDbCircle
10
-15.270305029078548
20
14.618987997939298
30
-1.8183180245829335e-14
40
0.088582677165352758
210
-0
220
1.2490009027033013e-15
230
1
0
LWPOLYLINE
5
107
100
AcDbEntity
8
0
100
AcDbPolyline
90
12
70
1
43
0.0
10
-17.264060794787969
20
16.856647618109736
10
-15.710144880478291
20
17.237889445897707
10
-15.523098108719815
20
16.475499450439521
10
-14.253150615775764
20
16.787071716960664
10
-14.052998656187079
20
15.971265861948085
10
-15.322946149131131
20
15.659693595426937
10
-14.834480057277789
20
13.668738830217661
10
-13.56453256433374
20
13.980311096738806
10
-13.364380604745055
20
13.164505241726225
10
-14.634328097689107
20
12.852932975205082
10
-14.44728132593063
20
12.090542979746896
10
-16.001197240240316
20
11.709301151958929
0
ENDSEC
0
SECTION
2
OBJECTS
0
DICTIONARY
5
C
100
AcDbDictionary
3
ACAD_GROUP
350
D
3
ACAD_MLINESTYLE
350
17
0
DICTIONARY
5
D
100
AcDbDictionary
0
DICTIONARY
5
1A
330
C
100
AcDbDictionary
0
DICTIONARY
5
17
100
AcDbDictionary
0
ENDSEC
0
EOF
