%TF.GenerationSoftware,KiCad,Pcbnew,7.0.6*%
%TF.CreationDate,2023-08-10T10:09:16-04:00*%
%TF.ProjectId,Final_PCB,46696e61-6c5f-4504-9342-2e6b69636164,rev?*%
%TF.SameCoordinates,Original*%
%TF.FileFunction,Soldermask,Bot*%
%TF.FilePolarity,Negative*%
%FSLAX46Y46*%
G04 Gerber Fmt 4.6, Leading zero omitted, Abs format (unit mm)*
G04 Created by KiCad (PCBNEW 7.0.6) date 2023-08-10 10:09:16*
%MOMM*%
%LPD*%
G01*
G04 APERTURE LIST*
%ADD10C,1.400000*%
%ADD11O,1.400000X1.400000*%
%ADD12C,1.600000*%
%ADD13O,1.600000X1.600000*%
%ADD14C,0.900000*%
%ADD15R,1.600000X1.600000*%
%ADD16C,3.700000*%
G04 APERTURE END LIST*
D10*
%TO.C,LEDSPT2*%
X237744000Y-73939400D03*
D11*
X240284000Y-73939400D03*
%TD*%
D12*
%TO.C,SOLENOID6*%
X128037800Y-104278400D03*
D13*
X133117800Y-104278400D03*
%TD*%
D10*
%TO.C,ARD2_PIN37*%
X95554800Y-104238400D03*
%TD*%
%TO.C,R23*%
X99339400Y-126288400D03*
D11*
X106959400Y-126288400D03*
%TD*%
D14*
%TO.C,IFD97_1*%
X190481200Y-107111800D03*
X191731200Y-107111800D03*
X193231200Y-107111800D03*
X194481200Y-107111800D03*
%TD*%
D10*
%TO.C,ARD2_PIN33*%
X95554800Y-91592400D03*
%TD*%
D12*
%TO.C,SOLENOID1*%
X128037800Y-82880200D03*
D13*
X133117800Y-82880200D03*
%TD*%
D10*
%TO.C,IFE91D_1*%
X207491600Y-106000000D03*
D11*
X210031600Y-106000000D03*
%TD*%
D10*
%TO.C,R24*%
X99339400Y-129438400D03*
D11*
X106959400Y-129438400D03*
%TD*%
D12*
%TO.C,SOLENOID16*%
X136699200Y-112378400D03*
D13*
X141779200Y-112378400D03*
%TD*%
D15*
%TO.C,OP07C_1*%
X187171600Y-88585200D03*
D13*
X189711600Y-88585200D03*
X192251600Y-88585200D03*
X194791600Y-88585200D03*
X194791600Y-80965200D03*
X192251600Y-80965200D03*
X189711600Y-80965200D03*
X187171600Y-80965200D03*
%TD*%
D12*
%TO.C,SOLENOID5*%
X128037800Y-100228400D03*
D13*
X133117800Y-100228400D03*
%TD*%
D10*
%TO.C,R11*%
X99339400Y-88488400D03*
D11*
X106959400Y-88488400D03*
%TD*%
D10*
%TO.C,ARD1_PIND10*%
X174853600Y-73888600D03*
%TD*%
%TO.C,ARD2_PIN36*%
X95554800Y-101088400D03*
%TD*%
%TO.C,R15*%
X99339400Y-101088400D03*
D11*
X106959400Y-101088400D03*
%TD*%
D10*
%TO.C,R21*%
X99339400Y-119988400D03*
D11*
X106959400Y-119988400D03*
%TD*%
D16*
%TO.C,MOUNT*%
X81508600Y-136271000D03*
%TD*%
D10*
%TO.C,R25*%
X181813200Y-73939400D03*
D11*
X189433200Y-73939400D03*
%TD*%
D12*
%TO.C,R6*%
X231621600Y-101295200D03*
D13*
X231621600Y-93675200D03*
%TD*%
D12*
%TO.C,SOLENOID9*%
X136699200Y-82880200D03*
D13*
X141779200Y-82880200D03*
%TD*%
D10*
%TO.C,R20*%
X99339400Y-116838400D03*
D11*
X106959400Y-116838400D03*
%TD*%
D12*
%TO.C,SOLENOID13*%
X136699200Y-100228400D03*
D13*
X141779200Y-100228400D03*
%TD*%
D10*
%TO.C,MOTOR_GNWT1*%
X163281000Y-124637800D03*
%TD*%
%TO.C,C2*%
X192251600Y-113995200D03*
D11*
X192251600Y-121615200D03*
%TD*%
D12*
%TO.C,MOTOR_DRIVER1*%
X151631600Y-96205200D03*
X151631600Y-98745200D03*
X151631600Y-101285200D03*
X151631600Y-103825200D03*
X151631600Y-106365200D03*
X151631600Y-108905200D03*
X151631600Y-111445200D03*
X151631600Y-113985200D03*
X164331600Y-113985200D03*
X164331600Y-111445200D03*
X164331600Y-108905200D03*
X164331600Y-106365200D03*
X164331600Y-103825200D03*
X164331600Y-101285200D03*
X164331600Y-98745200D03*
X164331600Y-96205200D03*
%TD*%
%TO.C,R8*%
X255751600Y-113995200D03*
D13*
X248131600Y-113995200D03*
%TD*%
D10*
%TO.C,R18*%
X99339400Y-110538400D03*
D11*
X106959400Y-110538400D03*
%TD*%
D10*
%TO.C,ARD2_PIN38*%
X95554800Y-107388400D03*
%TD*%
%TO.C,ARD2_PIN34*%
X95554800Y-94788400D03*
%TD*%
%TO.C,R13*%
X99339400Y-94788400D03*
D11*
X106959400Y-94788400D03*
%TD*%
D10*
%TO.C,ARD2_PIN42*%
X95554800Y-119988400D03*
%TD*%
%TO.C,ARD2_PIN43*%
X95554800Y-123138400D03*
%TD*%
%TO.C,ARD2_PIN30*%
X95554800Y-82188400D03*
%TD*%
%TO.C,ARD1OUT2*%
X244321600Y-84785200D03*
%TD*%
%TO.C,R10*%
X99339400Y-85338400D03*
D11*
X106959400Y-85338400D03*
%TD*%
D12*
%TO.C,SOLENOID10*%
X136699200Y-87909400D03*
D13*
X141779200Y-87909400D03*
%TD*%
D16*
%TO.C,REF\u002A\u002A*%
X81508600Y-71043800D03*
%TD*%
D10*
%TO.C,ARD2_SOURCE1*%
X156741600Y-80975200D03*
D11*
X161821600Y-80975200D03*
%TD*%
D10*
%TO.C,ARD2_PIN45*%
X95554800Y-129438400D03*
%TD*%
%TO.C,R9*%
X99339400Y-82188400D03*
D11*
X106959400Y-82188400D03*
%TD*%
D10*
%TO.C,ARD2_PIN41*%
X95554800Y-116838400D03*
%TD*%
D12*
%TO.C,R3*%
X196061600Y-101295200D03*
D13*
X196061600Y-93675200D03*
%TD*%
D12*
%TO.C,SOLENOID11*%
X136699200Y-91959400D03*
D13*
X141779200Y-91959400D03*
%TD*%
D12*
%TO.C,R4*%
X215111600Y-113995200D03*
D13*
X207491600Y-113995200D03*
%TD*%
D12*
%TO.C,R1*%
X185901600Y-101295200D03*
D13*
X185901600Y-93675200D03*
%TD*%
D10*
%TO.C,R17*%
X99339400Y-107388400D03*
D11*
X106959400Y-107388400D03*
%TD*%
D10*
%TO.C,C4*%
X238156600Y-113995200D03*
D11*
X238156600Y-121615200D03*
%TD*%
D10*
%TO.C,MOTOR_PK1*%
X165905000Y-124637800D03*
%TD*%
D12*
%TO.C,C6*%
X226541600Y-113995200D03*
D13*
X226541600Y-121615200D03*
%TD*%
D10*
%TO.C,LEDSPT1*%
X194970400Y-73939400D03*
D11*
X197510400Y-73939400D03*
%TD*%
D10*
%TO.C,ARD2_PIN32*%
X95554800Y-88488400D03*
%TD*%
D12*
%TO.C,R5*%
X226591600Y-101295200D03*
D13*
X226591600Y-93675200D03*
%TD*%
D15*
%TO.C,OP07C_2*%
X227821600Y-88585200D03*
D13*
X230361600Y-88585200D03*
X232901600Y-88585200D03*
X235441600Y-88585200D03*
X235441600Y-80965200D03*
X232901600Y-80965200D03*
X230361600Y-80965200D03*
X227821600Y-80965200D03*
%TD*%
D12*
%TO.C,SOLENOID15*%
X136699200Y-108328400D03*
D13*
X141779200Y-108328400D03*
%TD*%
D10*
%TO.C,R12*%
X99339400Y-91592400D03*
D11*
X106959400Y-91592400D03*
%TD*%
D10*
%TO.C,ARD2_PIN44*%
X95554800Y-126288400D03*
%TD*%
%TO.C,MOTO_PKWT1*%
X168529000Y-124637800D03*
%TD*%
D12*
%TO.C,SOLENOID3*%
X128037800Y-91959400D03*
D13*
X133117800Y-91959400D03*
%TD*%
D10*
%TO.C,R16*%
X99339400Y-104238400D03*
D11*
X106959400Y-104238400D03*
%TD*%
D12*
%TO.C,SOLENOID12*%
X136699200Y-96009400D03*
D13*
X141779200Y-96009400D03*
%TD*%
D12*
%TO.C,SOLENOID7*%
X128037800Y-108328400D03*
D13*
X133117800Y-108328400D03*
%TD*%
D10*
%TO.C,R19*%
X99339400Y-113688400D03*
D11*
X106959400Y-113688400D03*
%TD*%
D12*
%TO.C,C5*%
X231806600Y-113995200D03*
D13*
X231806600Y-121615200D03*
%TD*%
D10*
%TO.C,ARD2_PIN35*%
X95554800Y-97938400D03*
%TD*%
D14*
%TO.C,IFD97_2*%
X230968800Y-107111800D03*
X232218800Y-107111800D03*
X233718800Y-107111800D03*
X234968800Y-107111800D03*
%TD*%
D10*
%TO.C,R22*%
X99339400Y-123138400D03*
D11*
X106959400Y-123138400D03*
%TD*%
D10*
%TO.C,IFE91D_2*%
X248131600Y-107645200D03*
D11*
X250671600Y-107645200D03*
%TD*%
D10*
%TO.C,ARD2_PIN31*%
X95554800Y-85369400D03*
%TD*%
%TO.C,12V_SOURCE1*%
X145311600Y-80975200D03*
D11*
X150391600Y-80975200D03*
%TD*%
D12*
%TO.C,R2*%
X190981600Y-101295200D03*
D13*
X190981600Y-93675200D03*
%TD*%
D12*
%TO.C,SOLENOID4*%
X128037800Y-96009400D03*
D13*
X133117800Y-96009400D03*
%TD*%
D10*
%TO.C,ARD1OUT1*%
X202411600Y-84785200D03*
%TD*%
D16*
%TO.C,REF\u002A\u002A*%
X256260600Y-71043800D03*
%TD*%
D10*
%TO.C,R26*%
X225196400Y-73939400D03*
D11*
X232816400Y-73939400D03*
%TD*%
D12*
%TO.C,R7*%
X236701600Y-101295200D03*
D13*
X236701600Y-93675200D03*
%TD*%
D16*
%TO.C,REF\u002A\u002A*%
X256260600Y-136271000D03*
%TD*%
D10*
%TO.C,R14*%
X99339400Y-97938400D03*
D11*
X106959400Y-97938400D03*
%TD*%
D10*
%TO.C,C3*%
X187171600Y-113995200D03*
D11*
X187171600Y-121615200D03*
%TD*%
D12*
%TO.C,SOLENOID8*%
X128037800Y-112378400D03*
D13*
X133117800Y-112378400D03*
%TD*%
D12*
%TO.C,MOTOR_CONTROL_PINS1*%
X168121600Y-94945200D03*
D13*
X168121600Y-100025200D03*
%TD*%
D10*
%TO.C,ARD2_PIN39*%
X95554800Y-110538400D03*
%TD*%
D12*
%TO.C,SOLENOID2*%
X128037800Y-87909400D03*
D13*
X133117800Y-87909400D03*
%TD*%
D10*
%TO.C,C7*%
X145261600Y-119075200D03*
D11*
X145261600Y-111455200D03*
%TD*%
D10*
%TO.C,ARD1_PIND11*%
X216966800Y-73888600D03*
%TD*%
%TO.C,ARD1_SOURCE1*%
X169441600Y-80975200D03*
D11*
X174521600Y-80975200D03*
%TD*%
D10*
%TO.C,MOTOR_GN1*%
X160657000Y-124637800D03*
%TD*%
%TO.C,ARD2_PIN40*%
X95554800Y-113688400D03*
%TD*%
%TO.C,C1*%
X197331600Y-113995200D03*
D11*
X197331600Y-121615200D03*
%TD*%
D12*
%TO.C,SOLENOID14*%
X136699200Y-104278400D03*
D13*
X141779200Y-104278400D03*
%TD*%
M02*
