M48
INCH,TZ
T1C0.0157
T2C0.0197
T3C0.0276
T4C0.0315
%
G90
G05
T1
X42950Y-33390
X42950Y-35050
X42950Y-37530
X42950Y-39530
X42950Y-42190
X42950Y-44620
X42950Y-46830
X42950Y-49550
X43810Y-33400
X43990Y-45990
X44000Y-50850
X44010Y-35880
X44010Y-38480
X44010Y-48260
X44030Y-41010
X44370Y-42110
X46880Y-42090
X46880Y-43570
X46880Y-47100
X46880Y-48780
X46950Y-31530
X46950Y-33120
X46980Y-37080
X46980Y-38650
X49130Y-34290
X49130Y-35830
X49170Y-39100
X49170Y-40700
X49230Y-44280
X49230Y-45820
X49340Y-49190
X49340Y-51040
X52440Y-48240
X55880Y-45590
X58840Y-43500
X58960Y-46160
X60440Y-30300
X60780Y-42370
X63190Y-42380
X66380Y-47510
X68190Y-32880
X68190Y-35880
X70690Y-36380
X70690Y-38380
X72630Y-31380
X73690Y-35880
X75190Y-35880
X76190Y-39880
X82160Y-31340
X83690Y-31380
X84690Y-40380
X85690Y-29880
X86690Y-40380
X87690Y-41900
X92120Y-38150
X96190Y-44380
X97190Y-45880
X97250Y-30590
X98610Y-29910
T2
X74993Y-42170
X75485Y-42170
X76075Y-42170
X76567Y-42170
X90933Y-42170
X91425Y-42170
X92015Y-42170
X92507Y-42170
T3
X37620Y-32358
X37620Y-33610
X37620Y-34838
X37620Y-36060
X37620Y-37318
X37620Y-38558
X37620Y-39799
X37620Y-41039
X37620Y-42279
X37620Y-43519
X37620Y-44759
X37620Y-45999
X37620Y-47240
X37620Y-48480
X37620Y-49720
X37620Y-50960
X39110Y-32358
X39110Y-33598
X39110Y-34838
X39110Y-36060
X39110Y-37318
X39110Y-38558
X39110Y-39799
X39110Y-41039
X39110Y-42279
X39110Y-43519
X39110Y-44759
X39110Y-45999
X39110Y-47240
X39110Y-48480
X39110Y-49720
X39110Y-50960
X42110Y-32358
X42110Y-33598
X42110Y-34838
X42110Y-36060
X42110Y-37318
X42110Y-38558
X42110Y-39799
X42110Y-41039
X42110Y-42279
X42110Y-43519
X42110Y-44759
X42110Y-45999
X42110Y-47240
X42110Y-48480
X42110Y-49720
X42110Y-50960
X57190Y-43880
X57190Y-46880
X57209Y-31880
X59209Y-31880
X61709Y-31880
X63251Y-49070
X63709Y-31880
X64284Y-49070
X65317Y-49070
X66350Y-49070
X66709Y-31880
X68709Y-31880
X68840Y-29090
X71580Y-29110
X73690Y-44880
X73690Y-47880
X74580Y-29110
X75690Y-44880
X75690Y-47880
X76760Y-29110
X77690Y-44880
X77690Y-47880
X77760Y-29110
X79690Y-33380
X81690Y-41732
X82690Y-41732
X85420Y-29090
X88660Y-29110
X91660Y-29110
X93600Y-29110
X93762Y-44880
X93762Y-47880
X94600Y-29110
X96190Y-33380
X97690Y-42380
X98690Y-42380
T4
X50409Y-32630
X50409Y-34610
X50409Y-36204
X50409Y-37799
X50409Y-39460
X50409Y-41054
X50409Y-42649
X50409Y-44243
X52409Y-32630
X52409Y-34610
X52409Y-36204
X52409Y-37799
X52409Y-39460
X52409Y-41054
X52409Y-42649
X52409Y-44243
X53819Y-32630
X53819Y-34610
X53819Y-36204
X53819Y-37799
X53819Y-39460
X53819Y-41054
X53819Y-42649
X53819Y-44243
X55819Y-32630
X55819Y-34610
X55819Y-36204
X55819Y-37799
X55819Y-39460
X55819Y-41054
X55819Y-42649
X55819Y-44243
X59697Y-37876
X59697Y-38876
X59697Y-39876
X59697Y-40876
X59697Y-41876
X59697Y-42876
X59697Y-43876
X59697Y-44876
X64697Y-37876
X64697Y-38876
X64697Y-39876
X64697Y-40876
X64697Y-41876
X64697Y-42876
X64697Y-43876
X64697Y-44876
X66190Y-37380
X66190Y-39380
X73190Y-36880
X73190Y-39880
X73690Y-31876
X73690Y-34876
X74690Y-31876
X74690Y-34876
X75190Y-36880
X75190Y-39880
X75690Y-31876
X75690Y-34876
X76690Y-31876
X76690Y-34876
X77190Y-36880
X77190Y-39880
X81690Y-44880
X84690Y-44880
X89190Y-44880
X89190Y-47880
X89209Y-36880
X89209Y-39880
X89694Y-31876
X89694Y-34876
X90694Y-31876
X90694Y-34876
X91190Y-36880
X91190Y-39880
X91262Y-44880
X91262Y-47880
X91694Y-31876
X91694Y-34876
X92694Y-31876
X92694Y-34876
X93190Y-36880
X93190Y-39880
X97690Y-44880
X100690Y-44880
T0
M30
